<svg viewBox="0 0 600 400" xmlns="http://www.w3.org/2000/svg">
<g transform="translate(48, 364)">
<g>
<rect fill="burlywood" height="101.19047619054629" stroke="black" width="260" x="130" y="-250.95238095243704"/>
<line stroke="black" x1="130" x2="390" y1="-230.7142857143278" y2="-230.7142857143278"/>
<line stroke="black" x1="260" x2="260" y1="-28.333333333235167" y2="-149.76190476189075"/>
<line stroke="black" x1="260" x2="260" y1="-311.66666666676485" y2="-250.95238095243704"/>
</g>
<g>
<g>
<line stroke="black" stroke-width="1" x1="260" x2="260" y1="0" y2="10"/>
</g>
<line stroke="black" stroke-width="1" x1="0" x2="520" y1="0" y2="0"/>
<g>
<text font-size="12" text-anchor="middle" x="260" y="20">

</text>
</g>
<text font-size="12" text-anchor="middle" x="260" y="30">

</text>
</g>
<g>
<g>
<line stroke="black" stroke-width="1" x1="0" x2="-10" y1="-68.8095238094537" y2="-68.8095238094537"/>
<line stroke="black" stroke-width="1" x1="0" x2="-10" y1="-149.76190476189075" y2="-149.76190476189075"/>
<line stroke="black" stroke-width="1" x1="0" x2="-10" y1="-230.7142857143278" y2="-230.7142857143278"/>
<line stroke="black" stroke-width="1" x1="0" x2="-10" y1="-311.66666666676485" y2="-311.66666666676485"/>
</g>
<line stroke="black" stroke-width="1" x1="0" x2="0" y1="0" y2="-340"/>
<g>
<text dominant-baseline="middle" font-size="12" text-anchor="end" x="-15" y="-68.8095238094537">
92224
</text>
<text dominant-baseline="middle" font-size="12" text-anchor="end" x="-15" y="-149.76190476189075">
92228
</text>
<text dominant-baseline="middle" font-size="12" text-anchor="end" x="-15" y="-230.7142857143278">
92232
</text>
<text dominant-baseline="middle" font-size="12" text-anchor="end" x="-15" y="-311.66666666676485">
92236
</text>
</g>
<text font-size="12" text-anchor="middle" transform="rotate(-90 -30 -170)" x="-30" y="-170">

</text>
</g>
</g>
</svg>