<svg viewBox="0 0 600 400" xmlns="http://www.w3.org/2000/svg">
<g transform="translate(48, 364)">
<g>
<rect fill="burlywood" height="12.878787878787172" stroke="black" width="260" x="130" y="-54.09090909091548"/>
<line stroke="black" x1="130" x2="390" y1="-41.21212121212831" y2="-41.21212121212831"/>
<line stroke="black" x1="260" x2="260" y1="-28.33333333334114" y2="-41.21212121212831"/>
<line stroke="black" x1="260" x2="260" y1="-311.66666666665884" y2="-54.09090909091548"/>
</g>
<g>
<g>
<line stroke="black" stroke-width="1" x1="260" x2="260" y1="0" y2="10"/>
</g>
<line stroke="black" stroke-width="1" x1="0" x2="520" y1="0" y2="0"/>
<g>
<text font-size="12" text-anchor="middle" x="260" y="20">

</text>
</g>
<text font-size="12" text-anchor="middle" x="260" y="30">

</text>
</g>
<g>
<g>
<line stroke="black" stroke-width="1" x1="0" x2="-10" y1="-54.09090909091548" y2="-54.09090909091548"/>
<line stroke="black" stroke-width="1" x1="0" x2="-10" y1="-118.48484848485133" y2="-118.48484848485133"/>
<line stroke="black" stroke-width="1" x1="0" x2="-10" y1="-182.87878787878716" y2="-182.87878787878716"/>
<line stroke="black" stroke-width="1" x1="0" x2="-10" y1="-247.27272727272302" y2="-247.27272727272302"/>
<line stroke="black" stroke-width="1" x1="0" x2="-10" y1="-311.66666666665884" y2="-311.66666666665884"/>
</g>
<line stroke="black" stroke-width="1" x1="0" x2="0" y1="0" y2="-340"/>
<g>
<text dominant-baseline="middle" font-size="12" text-anchor="end" x="-15" y="-54.09090909091548">
16300
</text>
<text dominant-baseline="middle" font-size="12" text-anchor="end" x="-15" y="-118.48484848485133">
16305
</text>
<text dominant-baseline="middle" font-size="12" text-anchor="end" x="-15" y="-182.87878787878716">
16310
</text>
<text dominant-baseline="middle" font-size="12" text-anchor="end" x="-15" y="-247.27272727272302">
16315
</text>
<text dominant-baseline="middle" font-size="12" text-anchor="end" x="-15" y="-311.66666666665884">
16320
</text>
</g>
<text font-size="12" text-anchor="middle" transform="rotate(-90 -30 -170)" x="-30" y="-170">

</text>
</g>
</g>
</svg>