<svg viewBox="0 0 600 400" xmlns="http://www.w3.org/2000/svg">
<g transform="translate(48, 364)">
<g>
<rect fill="burlywood" height="0.003277822446140277" stroke="black" width="260" x="130" y="-28.33825006700255"/>
<line stroke="black" x1="130" x2="390" y1="-28.33497224455641" y2="-28.33497224455641"/>
<line stroke="black" x1="260" x2="260" y1="-28.33333333333334" y2="-28.33497224455641"/>
<line stroke="black" x1="260" x2="260" y1="-311.6666666666667" y2="-28.33825006700255"/>
</g>
<g>
<g>
<line stroke="black" stroke-width="1" x1="260" x2="260" y1="0" y2="10"/>
</g>
<line stroke="black" stroke-width="1" x1="0" x2="520" y1="0" y2="0"/>
<g>
<text font-size="12" text-anchor="middle" x="260" y="20">

</text>
</g>
<text font-size="12" text-anchor="middle" x="260" y="30">

</text>
</g>
<g>
<g>
<line stroke="black" stroke-width="1" x1="0" x2="-10" y1="-1.6223582197182254" y2="-1.6223582197182254"/>
<line stroke="black" stroke-width="1" x1="0" x2="-10" y1="-67.17880714256793" y2="-67.17880714256793"/>
<line stroke="black" stroke-width="1" x1="0" x2="-10" y1="-132.73525606541762" y2="-132.73525606541762"/>
<line stroke="black" stroke-width="1" x1="0" x2="-10" y1="-198.29170498826733" y2="-198.29170498826733"/>
<line stroke="black" stroke-width="1" x1="0" x2="-10" y1="-263.84815391111704" y2="-263.84815391111704"/>
<line stroke="black" stroke-width="1" x1="0" x2="-10" y1="-329.40460283396675" y2="-329.40460283396675"/>
</g>
<line stroke="black" stroke-width="1" x1="0" x2="0" y1="0" y2="-340"/>
<g>
<text dominant-baseline="middle" font-size="12" text-anchor="end" x="-15" y="-1.6223582197182254">
0
</text>
<text dominant-baseline="middle" font-size="12" text-anchor="end" x="-15" y="-67.17880714256793">
40000
</text>
<text dominant-baseline="middle" font-size="12" text-anchor="end" x="-15" y="-132.73525606541762">
80000
</text>
<text dominant-baseline="middle" font-size="12" text-anchor="end" x="-15" y="-198.29170498826733">
120000
</text>
<text dominant-baseline="middle" font-size="12" text-anchor="end" x="-15" y="-263.84815391111704">
160000
</text>
<text dominant-baseline="middle" font-size="12" text-anchor="end" x="-15" y="-329.40460283396675">
200000
</text>
</g>
<text font-size="12" text-anchor="middle" transform="rotate(-90 -30 -170)" x="-30" y="-170">

</text>
</g>
</g>
</svg>