<svg viewBox="0 0 600 400" xmlns="http://www.w3.org/2000/svg">
<g transform="translate(48, 364)">
<g>
<rect fill="burlywood" height="0" stroke="black" width="260" x="130" y="-28.338249782615826"/>
<line stroke="black" x1="130" x2="390" y1="-28.338249782615826" y2="-28.338249782615826"/>
<line stroke="black" x1="260" x2="260" y1="-28.33333333333334" y2="-28.338249782615826"/>
<line stroke="black" x1="260" x2="260" y1="-311.6666666666667" y2="-28.338249782615826"/>
</g>
<g>
<g>
<line stroke="black" stroke-width="1" x1="260" x2="260" y1="0" y2="10"/>
</g>
<line stroke="black" stroke-width="1" x1="0" x2="520" y1="0" y2="0"/>
<g>
<text font-size="12" text-anchor="middle" x="260" y="20">

</text>
</g>
<text font-size="12" text-anchor="middle" x="260" y="30">

</text>
</g>
<g>
<g>
<line stroke="black" stroke-width="1" x1="0" x2="-10" y1="-1.6271808308606508" y2="-1.6271808308606508"/>
<line stroke="black" stroke-width="1" x1="0" x2="-10" y1="-67.17983793069543" y2="-67.17983793069543"/>
<line stroke="black" stroke-width="1" x1="0" x2="-10" y1="-132.73249503053017" y2="-132.73249503053017"/>
<line stroke="black" stroke-width="1" x1="0" x2="-10" y1="-198.28515213036496" y2="-198.28515213036496"/>
<line stroke="black" stroke-width="1" x1="0" x2="-10" y1="-263.83780923019975" y2="-263.83780923019975"/>
<line stroke="black" stroke-width="1" x1="0" x2="-10" y1="-329.3904663300345" y2="-329.3904663300345"/>
</g>
<line stroke="black" stroke-width="1" x1="0" x2="0" y1="0" y2="-340"/>
<g>
<text dominant-baseline="middle" font-size="12" text-anchor="end" x="-15" y="-1.6271808308606508">
0
</text>
<text dominant-baseline="middle" font-size="12" text-anchor="end" x="-15" y="-67.17983793069543">
40000
</text>
<text dominant-baseline="middle" font-size="12" text-anchor="end" x="-15" y="-132.73249503053017">
80000
</text>
<text dominant-baseline="middle" font-size="12" text-anchor="end" x="-15" y="-198.28515213036496">
120000
</text>
<text dominant-baseline="middle" font-size="12" text-anchor="end" x="-15" y="-263.83780923019975">
160000
</text>
<text dominant-baseline="middle" font-size="12" text-anchor="end" x="-15" y="-329.3904663300345">
200000
</text>
</g>
<text font-size="12" text-anchor="middle" transform="rotate(-90 -30 -170)" x="-30" y="-170">

</text>
</g>
</g>
</svg>