<svg viewBox="0 0 600 400" xmlns="http://www.w3.org/2000/svg">
<g transform="translate(48, 364)">
<g>
<rect fill="burlywood" height="85.00000000000003" stroke="black" width="260" x="130" y="-311.6666666666667"/>
<line stroke="black" x1="130" x2="390" y1="-255" y2="-255"/>
<line stroke="black" x1="260" x2="260" y1="-28.333333333333332" y2="-226.66666666666666"/>
<line stroke="black" x1="260" x2="260" y1="-311.6666666666667" y2="-311.6666666666667"/>
</g>
<g>
<g>
<line stroke="black" stroke-width="1" x1="260" x2="260" y1="0" y2="10"/>
</g>
<line stroke="black" stroke-width="1" x1="0" x2="520" y1="0" y2="0"/>
<g>
<text font-size="12" text-anchor="middle" x="260" y="20">

</text>
</g>
<text font-size="12" text-anchor="middle" x="260" y="30">

</text>
</g>
<g>
<g>
<line stroke="black" stroke-width="1" x1="0" x2="-10" y1="0" y2="0"/>
<line stroke="black" stroke-width="1" x1="0" x2="-10" y1="-113.33333333333333" y2="-113.33333333333333"/>
<line stroke="black" stroke-width="1" x1="0" x2="-10" y1="-226.66666666666666" y2="-226.66666666666666"/>
<line stroke="black" stroke-width="1" x1="0" x2="-10" y1="-340" y2="-340"/>
</g>
<line stroke="black" stroke-width="1" x1="0" x2="0" y1="0" y2="-340"/>
<g>
<text dominant-baseline="middle" font-size="12" text-anchor="end" x="-15" y="0">
17484
</text>
<text dominant-baseline="middle" font-size="12" text-anchor="end" x="-15" y="-113.33333333333333">
17488
</text>
<text dominant-baseline="middle" font-size="12" text-anchor="end" x="-15" y="-226.66666666666666">
17492
</text>
<text dominant-baseline="middle" font-size="12" text-anchor="end" x="-15" y="-340">
17496
</text>
</g>
<text font-size="12" text-anchor="middle" transform="rotate(-90 -30 -170)" x="-30" y="-170">

</text>
</g>
</g>
</svg>