<svg viewBox="0 0 600 400" xmlns="http://www.w3.org/2000/svg">
<g transform="translate(48, 364)">
<g>
<rect fill="burlywood" height="0" stroke="black" width="260" x="130" y="-28.33333333341923"/>
<line stroke="black" x1="130" x2="390" y1="-28.33333333341923" y2="-28.33333333341923"/>
<line stroke="black" x1="260" x2="260" y1="-28.33333333341923" y2="-28.33333333341923"/>
<line stroke="black" x1="260" x2="260" y1="-311.6666666665808" y2="-28.33333333341923"/>
</g>
<g>
<g>
<line stroke="black" stroke-width="1" x1="260" x2="260" y1="0" y2="10"/>
</g>
<line stroke="black" stroke-width="1" x1="0" x2="520" y1="0" y2="0"/>
<g>
<text font-size="12" text-anchor="middle" x="260" y="20">

</text>
</g>
<text font-size="12" text-anchor="middle" x="260" y="30">

</text>
</g>
<g>
<g>
<line stroke="black" stroke-width="1" x1="0" x2="-10" y1="-28.33333333341923" y2="-28.33333333341923"/>
<line stroke="black" stroke-width="1" x1="0" x2="-10" y1="-99.16666666670962" y2="-99.16666666670962"/>
<line stroke="black" stroke-width="1" x1="0" x2="-10" y1="-170" y2="-170"/>
<line stroke="black" stroke-width="1" x1="0" x2="-10" y1="-240.8333333332904" y2="-240.8333333332904"/>
<line stroke="black" stroke-width="1" x1="0" x2="-10" y1="-311.6666666665808" y2="-311.6666666665808"/>
</g>
<line stroke="black" stroke-width="1" x1="0" x2="0" y1="0" y2="-340"/>
<g>
<text dominant-baseline="middle" font-size="12" text-anchor="end" x="-15" y="-28.33333333341923">
16299
</text>
<text dominant-baseline="middle" font-size="12" text-anchor="end" x="-15" y="-99.16666666670962">
16299.5
</text>
<text dominant-baseline="middle" font-size="12" text-anchor="end" x="-15" y="-170">
16300
</text>
<text dominant-baseline="middle" font-size="12" text-anchor="end" x="-15" y="-240.8333333332904">
16300.5
</text>
<text dominant-baseline="middle" font-size="12" text-anchor="end" x="-15" y="-311.6666666665808">
16301
</text>
</g>
<text font-size="12" text-anchor="middle" transform="rotate(-90 -30 -170)" x="-30" y="-170">

</text>
</g>
</g>
</svg>