<svg viewBox="0 0 600 400" xmlns="http://www.w3.org/2000/svg">
<g transform="translate(48, 364)">
<g>
<rect fill="burlywood" height="0" stroke="black" width="260" x="130" y="-28.333333333333332"/>
<line stroke="black" x1="130" x2="390" y1="-28.333333333333332" y2="-28.333333333333332"/>
<line stroke="black" x1="260" x2="260" y1="-28.333333333333332" y2="-28.333333333333332"/>
<line stroke="black" x1="260" x2="260" y1="-311.6666666666667" y2="-28.333333333333332"/>
</g>
<g>
<g>
<line stroke="black" stroke-width="1" x1="260" x2="260" y1="0" y2="10"/>
</g>
<line stroke="black" stroke-width="1" x1="0" x2="520" y1="0" y2="0"/>
<g>
<text font-size="12" text-anchor="middle" x="260" y="20">

</text>
</g>
<text font-size="12" text-anchor="middle" x="260" y="30">

</text>
</g>
<g>
<g>
<line stroke="black" stroke-width="1" x1="0" x2="-10" y1="-1.6201012292118582" y2="-1.6201012292118582"/>
<line stroke="black" stroke-width="1" x1="0" x2="-10" y1="-67.17806700409737" y2="-67.17806700409737"/>
<line stroke="black" stroke-width="1" x1="0" x2="-10" y1="-132.7360327789829" y2="-132.7360327789829"/>
<line stroke="black" stroke-width="1" x1="0" x2="-10" y1="-198.2939985538684" y2="-198.2939985538684"/>
<line stroke="black" stroke-width="1" x1="0" x2="-10" y1="-263.8519643287539" y2="-263.8519643287539"/>
<line stroke="black" stroke-width="1" x1="0" x2="-10" y1="-329.40993010363945" y2="-329.40993010363945"/>
</g>
<line stroke="black" stroke-width="1" x1="0" x2="0" y1="0" y2="-340"/>
<g>
<text dominant-baseline="middle" font-size="12" text-anchor="end" x="-15" y="-1.6201012292118582">
0
</text>
<text dominant-baseline="middle" font-size="12" text-anchor="end" x="-15" y="-67.17806700409737">
40000
</text>
<text dominant-baseline="middle" font-size="12" text-anchor="end" x="-15" y="-132.7360327789829">
80000
</text>
<text dominant-baseline="middle" font-size="12" text-anchor="end" x="-15" y="-198.2939985538684">
120000
</text>
<text dominant-baseline="middle" font-size="12" text-anchor="end" x="-15" y="-263.8519643287539">
160000
</text>
<text dominant-baseline="middle" font-size="12" text-anchor="end" x="-15" y="-329.40993010363945">
200000
</text>
</g>
<text font-size="12" text-anchor="middle" transform="rotate(-90 -30 -170)" x="-30" y="-170">

</text>
</g>
</g>
</svg>