<svg viewBox="0 0 600 400" xmlns="http://www.w3.org/2000/svg">
<g transform="translate(48, 364)">
<g>
<rect fill="burlywood" height="52.469135802478576" stroke="black" width="260" x="130" y="-143.76543209876073"/>
<line stroke="black" x1="130" x2="390" y1="-133.271604938265" y2="-133.271604938265"/>
<line stroke="black" x1="260" x2="260" y1="-28.333333333307884" y2="-91.29629629628215"/>
<line stroke="black" x1="260" x2="260" y1="-311.6666666666921" y2="-143.76543209876073"/>
</g>
<g>
<g>
<line stroke="black" stroke-width="1" x1="260" x2="260" y1="0" y2="10"/>
</g>
<line stroke="black" stroke-width="1" x1="0" x2="520" y1="0" y2="0"/>
<g>
<text font-size="12" text-anchor="middle" x="260" y="20">

</text>
</g>
<text font-size="12" text-anchor="middle" x="260" y="30">

</text>
</g>
<g>
<g>
<line stroke="black" stroke-width="1" x1="0" x2="-10" y1="-7.345679012316458" y2="-7.345679012316458"/>
<line stroke="black" stroke-width="1" x1="0" x2="-10" y1="-112.28395061727358" y2="-112.28395061727358"/>
<line stroke="black" stroke-width="1" x1="0" x2="-10" y1="-217.2222222222307" y2="-217.2222222222307"/>
<line stroke="black" stroke-width="1" x1="0" x2="-10" y1="-322.16049382718785" y2="-322.16049382718785"/>
</g>
<line stroke="black" stroke-width="1" x1="0" x2="0" y1="0" y2="-340"/>
<g>
<text dominant-baseline="middle" font-size="12" text-anchor="end" x="-15" y="-7.345679012316458">
92220
</text>
<text dominant-baseline="middle" font-size="12" text-anchor="end" x="-15" y="-112.28395061727358">
92230
</text>
<text dominant-baseline="middle" font-size="12" text-anchor="end" x="-15" y="-217.2222222222307">
92240
</text>
<text dominant-baseline="middle" font-size="12" text-anchor="end" x="-15" y="-322.16049382718785">
92250
</text>
</g>
<text font-size="12" text-anchor="middle" transform="rotate(-90 -30 -170)" x="-30" y="-170">

</text>
</g>
</g>
</svg>