<svg viewBox="0 0 600 400" xmlns="http://www.w3.org/2000/svg">
<g transform="translate(48, 364)">
<g>
<rect fill="burlywood" height="0.009833280448464876" stroke="black" width="260" x="130" y="-28.35159513988049"/>
<line stroke="black" x1="130" x2="390" y1="-28.34738087683115" y2="-28.34738087683115"/>
<line stroke="black" x1="260" x2="260" y1="-28.333333333333343" y2="-28.341761859432026"/>
<line stroke="black" x1="260" x2="260" y1="-311.6666666666667" y2="-28.35159513988049"/>
</g>
<g>
<g>
<line stroke="black" stroke-width="1" x1="260" x2="260" y1="0" y2="10"/>
</g>
<line stroke="black" stroke-width="1" x1="0" x2="520" y1="0" y2="0"/>
<g>
<text font-size="12" text-anchor="middle" x="260" y="20">

</text>
</g>
<text font-size="12" text-anchor="middle" x="260" y="30">

</text>
</g>
<g>
<g>
<line stroke="black" stroke-width="1" x1="0" x2="-10" y1="-39.25951266592629" y2="-39.25951266592629"/>
<line stroke="black" stroke-width="1" x1="0" x2="-10" y1="-109.49723015495269" y2="-109.49723015495269"/>
<line stroke="black" stroke-width="1" x1="0" x2="-10" y1="-179.73494764397907" y2="-179.73494764397907"/>
<line stroke="black" stroke-width="1" x1="0" x2="-10" y1="-249.97266513300548" y2="-249.97266513300548"/>
<line stroke="black" stroke-width="1" x1="0" x2="-10" y1="-320.2103826220319" y2="-320.2103826220319"/>
</g>
<line stroke="black" stroke-width="1" x1="0" x2="0" y1="0" y2="-340"/>
<g>
<text dominant-baseline="middle" font-size="12" text-anchor="end" x="-15" y="-39.25951266592629">
100000
</text>
<text dominant-baseline="middle" font-size="12" text-anchor="end" x="-15" y="-109.49723015495269">
150000
</text>
<text dominant-baseline="middle" font-size="12" text-anchor="end" x="-15" y="-179.73494764397907">
200000
</text>
<text dominant-baseline="middle" font-size="12" text-anchor="end" x="-15" y="-249.97266513300548">
250000
</text>
<text dominant-baseline="middle" font-size="12" text-anchor="end" x="-15" y="-320.2103826220319">
300000
</text>
</g>
<text font-size="12" text-anchor="middle" transform="rotate(-90 -30 -170)" x="-30" y="-170">

</text>
</g>
</g>
</svg>