<svg viewBox="0 0 600 400" xmlns="http://www.w3.org/2000/svg">
<g transform="translate(48, 364)">
<g>
<rect fill="burlywood" height="0" stroke="black" width="260" x="130" y="-28.333333333332735"/>
<line stroke="black" x1="130" x2="390" y1="-28.333333333332735" y2="-28.333333333332735"/>
<line stroke="black" x1="260" x2="260" y1="-28.333333333332735" y2="-28.333333333332735"/>
<line stroke="black" x1="260" x2="260" y1="-311.66666666666725" y2="-28.333333333332735"/>
</g>
<g>
<g>
<line stroke="black" stroke-width="1" x1="260" x2="260" y1="0" y2="10"/>
</g>
<line stroke="black" stroke-width="1" x1="0" x2="520" y1="0" y2="0"/>
<g>
<text font-size="12" text-anchor="middle" x="260" y="20">

</text>
</g>
<text font-size="12" text-anchor="middle" x="260" y="30">

</text>
</g>
<g>
<g>
<line stroke="black" stroke-width="1" x1="0" x2="-10" y1="-28.333333333332735" y2="-28.333333333332735"/>
<line stroke="black" stroke-width="1" x1="0" x2="-10" y1="-91.29629629629596" y2="-91.29629629629596"/>
<line stroke="black" stroke-width="1" x1="0" x2="-10" y1="-154.25925925925918" y2="-154.25925925925918"/>
<line stroke="black" stroke-width="1" x1="0" x2="-10" y1="-217.22222222222243" y2="-217.22222222222243"/>
<line stroke="black" stroke-width="1" x1="0" x2="-10" y1="-280.1851851851857" y2="-280.1851851851857"/>
</g>
<line stroke="black" stroke-width="1" x1="0" x2="0" y1="0" y2="-340"/>
<g>
<text dominant-baseline="middle" font-size="12" text-anchor="end" x="-15" y="-28.333333333332735">
378
</text>
<text dominant-baseline="middle" font-size="12" text-anchor="end" x="-15" y="-91.29629629629596">
380
</text>
<text dominant-baseline="middle" font-size="12" text-anchor="end" x="-15" y="-154.25925925925918">
382
</text>
<text dominant-baseline="middle" font-size="12" text-anchor="end" x="-15" y="-217.22222222222243">
384
</text>
<text dominant-baseline="middle" font-size="12" text-anchor="end" x="-15" y="-280.1851851851857">
386
</text>
</g>
<text font-size="12" text-anchor="middle" transform="rotate(-90 -30 -170)" x="-30" y="-170">

</text>
</g>
</g>
</svg>